Black.ufo
<glyph name="dollar" format="1">
  <advance width="647"/>
  <unicode hex="0024"/>
  <outline>
    <contour>
      <point x="264" y="818" type="line"/>
      <point x="418" y="818" type="line"/>
      <point x="408" y="618" type="line"/>
      <point x="274" y="618" type="line"/>
    </contour>
    <contour>
      <point x="274" y="70" type="line"/>
      <point x="407" y="70" type="line"/>
      <point x="417" y="-112" type="line"/>
      <point x="264" y="-112" type="line"/>
    </contour>
    <contour>
      <point x="454" y="474" type="line"/>
      <point x="424" y="532"/>
      <point x="383" y="559"/>
      <point x="346" y="559" type="curve" smooth="yes"/>
      <point x="306" y="559"/>
      <point x="289" y="535"/>
      <point x="289" y="514" type="curve" smooth="yes"/>
      <point x="289" y="465"/>
      <point x="363" y="455"/>
      <point x="448" y="424" type="curve" smooth="yes"/>
      <point x="556" y="385"/>
      <point x="627" y="317"/>
      <point x="627" y="200" type="curve" smooth="yes"/>
      <point x="627" y="61"/>
      <point x="504" y="-10"/>
      <point x="325" y="-10" type="curve" smooth="yes"/>
      <point x="190" y="-10"/>
      <point x="64" y="73"/>
      <point x="20" y="158" type="curve"/>
      <point x="168" y="266" type="line"/>
      <point x="220" y="190"/>
      <point x="263" y="158"/>
      <point x="330" y="158" type="curve" smooth="yes"/>
      <point x="376" y="158"/>
      <point x="394" y="171"/>
      <point x="394" y="201" type="curve" smooth="yes"/>
      <point x="394" y="236"/>
      <point x="344" y="248"/>
      <point x="261" y="281" type="curve" smooth="yes"/>
      <point x="192" y="308"/>
      <point x="64" y="369"/>
      <point x="64" y="510" type="curve" smooth="yes"/>
      <point x="64" y="616"/>
      <point x="174" y="710"/>
      <point x="338" y="710" type="curve" smooth="yes"/>
      <point x="501" y="710"/>
      <point x="566" y="642"/>
      <point x="617" y="564" type="curve"/>
    </contour>
  </outline>
</glyph>
<glyph name="eight" format="1">
  <advance width="676"/>
  <unicode hex="0038"/>
  <outline>
    <contour>
      <point x="75" y="531" type="curve" smooth="yes"/>
      <point x="75" y="660"/>
      <point x="198" y="720"/>
      <point x="338" y="720" type="curve" smooth="yes"/>
      <point x="478" y="720"/>
      <point x="601" y="660"/>
      <point x="601" y="531" type="curve" smooth="yes"/>
      <point x="601" y="392"/>
      <point x="453" y="335"/>
      <point x="338" y="335" type="curve" smooth="yes"/>
      <point x="223" y="335"/>
      <point x="75" y="392"/>
    </contour>
    <contour>
      <point x="281" y="511" type="curve" smooth="yes"/>
      <point x="281" y="475"/>
      <point x="303" y="450"/>
      <point x="338" y="450" type="curve" smooth="yes"/>
      <point x="373" y="450"/>
      <point x="395" y="475"/>
      <point x="395" y="511" type="curve" smooth="yes"/>
      <point x="395" y="547"/>
      <point x="373" y="570"/>
      <point x="338" y="570" type="curve" smooth="yes"/>
      <point x="303" y="570"/>
      <point x="281" y="547"/>
    </contour>
    <contour>
      <point x="50" y="190" type="curve" smooth="yes"/>
      <point x="50" y="349"/>
      <point x="223" y="400"/>
      <point x="338" y="400" type="curve" smooth="yes"/>
      <point x="453" y="400"/>
      <point x="626" y="349"/>
      <point x="626" y="190" type="curve" smooth="yes"/>
      <point x="626" y="51"/>
      <point x="483" y="-20"/>
      <point x="338" y="-20" type="curve" smooth="yes"/>
      <point x="193" y="-20"/>
      <point x="50" y="51"/>
    </contour>
    <contour>
      <point x="271" y="225" type="curve" smooth="yes"/>
      <point x="271" y="179"/>
      <point x="298" y="155"/>
      <point x="338" y="155" type="curve" smooth="yes"/>
      <point x="378" y="155"/>
      <point x="405" y="179"/>
      <point x="405" y="225" type="curve" smooth="yes"/>
      <point x="405" y="261"/>
      <point x="378" y="290"/>
      <point x="338" y="290" type="curve" smooth="yes"/>
      <point x="298" y="290"/>
      <point x="271" y="261"/>
    </contour>
  </outline>
</glyph>
<glyph name="less" format="1">
  <advance width="640"/>
  <unicode hex="003C"/>
  <outline>
    <contour>
      <point x="331" y="271" type="line"/>
      <point x="575" y="180" type="line"/>
      <point x="575" y="-10" type="line"/>
      <point x="65" y="200" type="line"/>
      <point x="65" y="335" type="line"/>
      <point x="575" y="545" type="line"/>
      <point x="575" y="355" type="line"/>
    </contour>
  </outline>
</glyph>
<glyph name="greater" format="1">
  <advance width="640"/>
  <unicode hex="003E"/>
  <outline>
    <contour>
      <point x="309" y="264" type="line"/>
      <point x="65" y="355" type="line"/>
      <point x="65" y="545" type="line"/>
      <point x="575" y="335" type="line"/>
      <point x="575" y="200" type="line"/>
      <point x="65" y="-10" type="line"/>
      <point x="65" y="180" type="line"/>
    </contour>
  </outline>
</glyph>
<glyph name="question" format="1">
  <advance width="669"/>
  <unicode hex="003F"/>
  <outline>
    <contour>
      <point x="202" y="70" type="curve" smooth="yes"/>
      <point x="202" y="123"/>
      <point x="250" y="170"/>
      <point x="320" y="170" type="curve" smooth="yes"/>
      <point x="390" y="170"/>
      <point x="438" y="123"/>
      <point x="438" y="70" type="curve" smooth="yes"/>
      <point x="438" y="17"/>
      <point x="390" y="-30"/>
      <point x="320" y="-30" type="curve" smooth="yes"/>
      <point x="250" y="-30"/>
      <point x="202" y="17"/>
    </contour>
    <contour>
      <point x="220" y="400" type="line"/>
      <point x="410" y="400" type="line"/>
      <point x="400" y="220" type="line"/>
      <point x="240" y="220" type="line"/>
    </contour>
    <contour>
      <point x="423" y="500" type="curve" smooth="yes"/>
      <point x="423" y="541"/>
      <point x="391" y="565"/>
      <point x="331" y="565" type="curve" smooth="yes"/>
      <point x="274" y="565"/>
      <point x="206" y="536"/>
      <point x="165" y="476" type="curve"/>
      <point x="40" y="587" type="line"/>
      <point x="126" y="677"/>
      <point x="222" y="725"/>
      <point x="341" y="725" type="curve" smooth="yes"/>
      <point x="476" y="725"/>
      <point x="619" y="649"/>
      <point x="619" y="500" type="curve" smooth="yes"/>
      <point x="619" y="331"/>
      <point x="421" y="270"/>
      <point x="306" y="270" type="curve"/>
      <point x="256" y="400" type="line"/>
      <point x="376" y="400"/>
      <point x="423" y="464"/>
    </contour>
  </outline>
</glyph>
<glyph name="M" format="1">
  <advance width="940"/>
  <unicode hex="004D"/>
  <outline>
    <contour>
      <point x="615" y="475" type="line"/>
      <point x="780" y="735" type="line"/>
      <point x="910" y="0" type="line"/>
      <point x="675" y="0" type="line"/>
    </contour>
    <contour>
      <point x="160" y="735" type="line"/>
      <point x="325" y="475" type="line"/>
      <point x="265" y="0" type="line"/>
      <point x="30" y="0" type="line"/>
    </contour>
    <contour>
      <point x="780" y="735" type="line"/>
      <point x="780" y="470" type="line"/>
      <point x="470" y="65" type="line"/>
      <point x="160" y="470" type="line"/>
      <point x="160" y="735" type="line"/>
      <point x="470" y="357" type="line"/>
    </contour>
  </outline>
</glyph>
<glyph name="N" format="1">
  <advance width="805"/>
  <unicode hex="004E"/>
  <outline>
    <contour>
      <point x="75" y="475" type="line"/>
      <point x="70" y="735" type="line"/>
      <point x="730" y="225" type="line"/>
      <point x="735" y="-35" type="line"/>
    </contour>
    <contour>
      <point x="525" y="700" type="line"/>
      <point x="735" y="700" type="line"/>
      <point x="735" y="-35" type="line"/>
      <point x="525" y="195" type="line"/>
    </contour>
    <contour>
      <point x="70" y="735" type="line"/>
      <point x="280" y="505" type="line"/>
      <point x="280" y="0" type="line"/>
      <point x="70" y="0" type="line"/>
    </contour>
  </outline>
</glyph>
<glyph name="W" format="1">
  <advance width="1110"/>
  <unicode hex="0057"/>
  <outline>
    <contour>
      <point x="405" y="200" type="line"/>
      <point x="320" y="-45" type="line"/>
      <point x="0" y="700" type="line"/>
      <point x="265" y="700" type="line"/>
    </contour>
    <contour>
      <point x="790" y="-45" type="line"/>
      <point x="705" y="200" type="line"/>
      <point x="845" y="700" type="line"/>
      <point x="1110" y="700" type="line"/>
    </contour>
    <contour>
      <point x="320" y="-45" type="line"/>
      <point x="305" y="235" type="line"/>
      <point x="555" y="735" type="line"/>
      <point x="805" y="235" type="line"/>
      <point x="790" y="-45" type="line"/>
      <point x="555" y="303" type="line"/>
    </contour>
  </outline>
</glyph>
<glyph name="grave" format="1">
  <advance width="375"/>
  <unicode hex="0060"/>
  <outline>
    <contour>
      <point x="40" y="650" type="line"/>
      <point x="180" y="710" type="line"/>
      <point x="330" y="550" type="line"/>
      <point x="220" y="500" type="line"/>
    </contour>
  </outline>
</glyph>
<glyph name="v" format="1">
  <advance width="580"/>
  <unicode hex="0076"/>
  <outline>
    <contour>
      <point x="-5" y="460" type="line"/>
      <point x="200" y="460" type="line"/>
      <point x="290" y="247" type="line"/>
      <point x="380" y="460" type="line"/>
      <point x="585" y="460" type="line"/>
      <point x="290" y="-65" type="line"/>
    </contour>
  </outline>
</glyph>
<glyph name="macron" format="1">
  <advance width="545"/>
  <unicode hex="00AF"/>
  <outline>
    <contour>
      <point x="80" y="555" type="line"/>
      <point x="80" y="720" type="line"/>
      <point x="465" y="720" type="line"/>
      <point x="465" y="555" type="line"/>
    </contour>
  </outline>
</glyph>
<glyph name="acute" format="1">
  <advance width="375"/>
  <unicode hex="00B4"/>
  <outline>
    <contour>
      <point x="330" y="650" type="line"/>
      <point x="150" y="500" type="line"/>
      <point x="40" y="550" type="line"/>
      <point x="190" y="710" type="line"/>
    </contour>
  </outline>
</glyph>
<glyph name="AE" format="1">
  <advance width="1160"/>
  <unicode hex="00C6"/>
  <outline>
    <contour>
      <point x="302" y="115" type="line"/>
      <point x="312" y="315" type="line"/>
      <point x="612" y="315" type="line"/>
      <point x="612" y="115" type="line"/>
    </contour>
    <contour>
      <point x="440" y="700" type="line"/>
      <point x="659" y="660" type="line"/>
      <point x="305" y="0" type="line"/>
      <point x="20" y="0" type="line"/>
    </contour>
    <contour>
      <point x="687" y="0" type="line"/>
      <point x="687" y="175" type="line"/>
      <point x="1090" y="175" type="line"/>
      <point x="1090" y="0" type="line"/>
    </contour>
    <contour>
      <point x="695" y="525" type="line"/>
      <point x="440" y="700" type="line"/>
      <point x="1090" y="700" type="line"/>
      <point x="1090" y="525" type="line"/>
    </contour>
    <contour>
      <point x="687" y="275" type="line"/>
      <point x="687" y="445" type="line"/>
      <point x="1070" y="445" type="line"/>
      <point x="1070" y="275" type="line"/>
    </contour>
    <contour>
      <point x="585" y="700" type="line"/>
      <point x="825" y="700" type="line"/>
      <point x="825" y="0" type="line"/>
      <point x="585" y="0" type="line"/>
    </contour>
  </outline>
</glyph>
<glyph name="Ccedilla" format="1">
  <advance width="710"/>
  <unicode hex="00C7"/>
  <outline>
    <contour>
      <point x="272" y="350" type="curve" smooth="yes"/>
      <point x="272" y="242"/>
      <point x="353" y="187"/>
      <point x="451" y="187" type="curve" smooth="yes"/>
      <point x="550" y="187"/>
      <point x="606" y="231"/>
      <point x="650" y="273" type="curve"/>
      <point x="650" y="47" type="line"/>
      <point x="595" y="9"/>
      <point x="537" y="-20"/>
      <point x="435" y="-20" type="curve" smooth="yes"/>
      <point x="191" y="-20"/>
      <point x="30" y="126"/>
      <point x="30" y="350" type="curve" smooth="yes"/>
      <point x="30" y="574"/>
      <point x="191" y="720"/>
      <point x="435" y="720" type="curve" smooth="yes"/>
      <point x="537" y="720"/>
      <point x="595" y="691"/>
      <point x="650" y="653" type="curve"/>
      <point x="650" y="427" type="line"/>
      <point x="606" y="469"/>
      <point x="550" y="513"/>
      <point x="451" y="513" type="curve" smooth="yes"/>
      <point x="353" y="513"/>
      <point x="272" y="458"/>
    </contour>
    <contour>
      <point x="345" y="62" type="line"/>
      <point x="485" y="56" type="line"/>
      <point x="355" y="-110" type="line"/>
      <point x="256" y="-149" type="line"/>
    </contour>
    <contour>
      <point x="541" y="-178" type="curve"/>
      <point x="420" y="-164" type="line"/>
      <point x="420" y="-136"/>
      <point x="382" y="-134"/>
      <point x="353" y="-134" type="curve" smooth="yes"/>
      <point x="343" y="-134"/>
      <point x="299" y="-135"/>
      <point x="256" y="-149" type="curve"/>
      <point x="335" y="-102" type="line"/>
      <point x="363" y="-72"/>
      <point x="395" y="-66"/>
      <point x="438" y="-66" type="curve" smooth="yes"/>
      <point x="482" y="-66"/>
      <point x="541" y="-102"/>
    </contour>
    <contour>
      <point x="541" y="-178" type="line"/>
      <point x="541" y="-257"/>
      <point x="463" y="-296"/>
      <point x="395" y="-296" type="curve" smooth="yes"/>
      <point x="328" y="-296"/>
      <point x="276" y="-287"/>
      <point x="218" y="-256" type="curve"/>
      <point x="271" y="-170" type="line"/>
      <point x="300" y="-190"/>
      <point x="347" y="-196"/>
      <point x="363" y="-196" type="curve" smooth="yes"/>
      <point x="397" y="-196"/>
      <point x="420" y="-188"/>
      <point x="420" y="-164" type="curve"/>
    </contour>
  </outline>
</glyph>
<glyph name="Ntilde" format="1">
  <advance width="805"/>
  <unicode hex="00D1"/>
  <outline>
    <contour>
      <point x="75" y="475" type="line"/>
      <point x="70" y="735" type="line"/>
      <point x="730" y="225" type="line"/>
      <point x="735" y="-35" type="line"/>
    </contour>
    <contour>
      <point x="525" y="700" type="line"/>
      <point x="735" y="700" type="line"/>
      <point x="735" y="-35" type="line"/>
      <point x="525" y="195" type="line"/>
    </contour>
    <contour>
      <point x="70" y="735" type="line"/>
      <point x="280" y="505" type="line"/>
      <point x="280" y="0" type="line"/>
      <point x="70" y="0" type="line"/>
    </contour>
    <contour>
      <point x="225" y="868" type="line"/>
      <point x="235" y="917"/>
      <point x="284" y="950"/>
      <point x="329" y="950" type="curve" smooth="yes"/>
      <point x="394" y="950"/>
      <point x="399" y="903"/>
      <point x="453" y="903" type="curve" smooth="yes"/>
      <point x="472" y="903"/>
      <point x="489" y="919"/>
      <point x="509" y="951" type="curve"/>
      <point x="555" y="908" type="line"/>
      <point x="539" y="871"/>
      <point x="499" y="835"/>
      <point x="449" y="835" type="curve" smooth="yes"/>
      <point x="394" y="835"/>
      <point x="373" y="882"/>
      <point x="328" y="882" type="curve" smooth="yes"/>
      <point x="287" y="882"/>
      <point x="278" y="846"/>
      <point x="278" y="831" type="curve"/>
    </contour>
  </outline>
</glyph>
<glyph name="multiply" format="1">
  <advance width="596"/>
  <unicode hex="00D7"/>
  <outline>
    <contour>
      <point x="151" y="-8" type="line"/>
      <point x="35" y="108" type="line"/>
      <point x="186" y="255" type="line"/>
      <point x="35" y="402" type="line"/>
      <point x="151" y="518" type="line"/>
      <point x="298" y="367" type="line"/>
      <point x="445" y="518" type="line"/>
      <point x="561" y="402" type="line"/>
      <point x="410" y="255" type="line"/>
      <point x="561" y="108" type="line"/>
      <point x="445" y="-8" type="line"/>
      <point x="298" y="143" type="line"/>
    </contour>
  </outline>
</glyph>
<glyph name="Oslash" format="1">
  <advance width="790"/>
  <unicode hex="00D8"/>
  <outline>
    <contour>
      <point x="263" y="350" type="curve" smooth="yes"/>
      <point x="263" y="242"/>
      <point x="322" y="178"/>
      <point x="420" y="178" type="curve" smooth="yes"/>
      <point x="518" y="178"/>
      <point x="577" y="242"/>
      <point x="577" y="350" type="curve" smooth="yes"/>
      <point x="577" y="458"/>
      <point x="518" y="522"/>
      <point x="420" y="522" type="curve" smooth="yes"/>
      <point x="322" y="522"/>
      <point x="263" y="458"/>
    </contour>
    <contour>
      <point x="30" y="350" type="curve" smooth="yes"/>
      <point x="30" y="574"/>
      <point x="196" y="720"/>
      <point x="420" y="720" type="curve" smooth="yes"/>
      <point x="644" y="720"/>
      <point x="810" y="574"/>
      <point x="810" y="350" type="curve" smooth="yes"/>
      <point x="810" y="126"/>
      <point x="644" y="-30"/>
      <point x="420" y="-30" type="curve" smooth="yes"/>
      <point x="196" y="-30"/>
      <point x="30" y="126"/>
    </contour>
    <contour>
      <point x="703" y="760" type="line"/>
      <point x="782" y="700" type="line"/>
      <point x="133" y="-60" type="line"/>
      <point x="55" y="0" type="line"/>
    </contour>
  </outline>
</glyph>
<glyph name="Yacute" format="1">
  <advance width="720"/>
  <unicode hex="00DD"/>
  <outline>
    <contour>
      <point x="248" y="360" type="line"/>
      <point x="473" y="360" type="line"/>
      <point x="473" y="0" type="line"/>
      <point x="248" y="0" type="line"/>
    </contour>
    <contour>
      <point x="470" y="700" type="line"/>
      <point x="725" y="700" type="line"/>
      <point x="360" y="84" type="line"/>
      <point x="-5" y="700" type="line"/>
      <point x="250" y="700" type="line"/>
      <point x="360" y="474" type="line"/>
    </contour>
    <contour>
      <point x="540" y="930" type="line"/>
      <point x="360" y="780" type="line"/>
      <point x="250" y="830" type="line"/>
      <point x="400" y="990" type="line"/>
    </contour>
  </outline>
</glyph>
<glyph name="atilde" format="1">
  <advance width="580"/>
  <unicode hex="00E3"/>
  <outline>
    <contour>
      <point x="216" y="139" type="curve" smooth="yes"/>
      <point x="216" y="115"/>
      <point x="238" y="106"/>
      <point x="263" y="106" type="curve" smooth="yes"/>
      <point x="303" y="106"/>
      <point x="345" y="124"/>
      <point x="345" y="190" type="curve"/>
      <point x="361" y="130" type="line"/>
      <point x="361" y="41"/>
      <point x="288" y="-10"/>
      <point x="193" y="-10" type="curve" smooth="yes"/>
      <point x="88" y="-10"/>
      <point x="20" y="41"/>
      <point x="20" y="130" type="curve" smooth="yes"/>
      <point x="20" y="217"/>
      <point x="100" y="275"/>
      <point x="221" y="275" type="curve" smooth="yes"/>
      <point x="279" y="275"/>
      <point x="354" y="257"/>
      <point x="378" y="233" type="curve"/>
      <point x="378" y="147" type="line"/>
      <point x="350" y="169"/>
      <point x="323" y="180"/>
      <point x="275" y="180" type="curve" smooth="yes"/>
      <point x="241" y="180"/>
      <point x="216" y="163"/>
    </contour>
    <contour>
      <point x="121" y="298" type="curve"/>
      <point x="62" y="424" type="line"/>
      <point x="126" y="449"/>
      <point x="210" y="475"/>
      <point x="293" y="475" type="curve" smooth="yes"/>
      <point x="428" y="475"/>
      <point x="530" y="419"/>
      <point x="530" y="320" type="curve" smooth="yes"/>
      <point x="530" y="0" type="line"/>
      <point x="345" y="0" type="line"/>
      <point x="345" y="272" type="line" smooth="yes"/>
      <point x="345" y="307"/>
      <point x="323" y="333"/>
      <point x="273" y="333" type="curve" smooth="yes"/>
      <point x="207" y="333"/>
      <point x="143" y="309"/>
    </contour>
    <contour>
      <point x="78" y="618" type="line"/>
      <point x="88" y="667"/>
      <point x="132" y="720"/>
      <point x="207" y="720" type="curve" smooth="yes"/>
      <point x="274" y="720"/>
      <point x="293" y="665"/>
      <point x="351" y="665" type="curve" smooth="yes"/>
      <point x="380" y="665"/>
      <point x="402" y="689"/>
      <point x="422" y="721" type="curve"/>
      <point x="508" y="628" type="line"/>
      <point x="492" y="591"/>
      <point x="427" y="535"/>
      <point x="357" y="535" type="curve" smooth="yes"/>
      <point x="302" y="535"/>
      <point x="258" y="592"/>
      <point x="206" y="592" type="curve" smooth="yes"/>
      <point x="170" y="592"/>
      <point x="161" y="556"/>
      <point x="161" y="541" type="curve"/>
    </contour>
  </outline>
</glyph>
<glyph name="ccedilla" format="1">
  <advance width="503"/>
  <unicode hex="00E7"/>
  <outline>
    <contour>
      <point x="231" y="230" type="curve" smooth="yes"/>
      <point x="231" y="169"/>
      <point x="278" y="138"/>
      <point x="333" y="138" type="curve" smooth="yes"/>
      <point x="377" y="138"/>
      <point x="422" y="154"/>
      <point x="453" y="197" type="curve"/>
      <point x="453" y="21" type="line"/>
      <point x="421" y="3"/>
      <point x="386" y="-10"/>
      <point x="313" y="-10" type="curve" smooth="yes"/>
      <point x="148" y="-10"/>
      <point x="30" y="81"/>
      <point x="30" y="230" type="curve" smooth="yes"/>
      <point x="30" y="379"/>
      <point x="148" y="470"/>
      <point x="313" y="470" type="curve" smooth="yes"/>
      <point x="386" y="470"/>
      <point x="421" y="455"/>
      <point x="453" y="441" type="curve"/>
      <point x="453" y="264" type="line"/>
      <point x="422" y="307"/>
      <point x="367" y="322"/>
      <point x="333" y="322" type="curve" smooth="yes"/>
      <point x="278" y="322"/>
      <point x="231" y="281"/>
    </contour>
    <contour>
      <point x="203" y="102" type="line"/>
      <point x="343" y="96" type="line"/>
      <point x="213" y="-70" type="line"/>
      <point x="114" y="-109" type="line"/>
    </contour>
    <contour>
      <point x="399" y="-138" type="curve"/>
      <point x="278" y="-124" type="line"/>
      <point x="278" y="-96"/>
      <point x="240" y="-94"/>
      <point x="211" y="-94" type="curve" smooth="yes"/>
      <point x="201" y="-94"/>
      <point x="157" y="-95"/>
      <point x="114" y="-109" type="curve"/>
      <point x="193" y="-62" type="line"/>
      <point x="221" y="-32"/>
      <point x="253" y="-26"/>
      <point x="296" y="-26" type="curve" smooth="yes"/>
      <point x="340" y="-26"/>
      <point x="399" y="-62"/>
    </contour>
    <contour>
      <point x="399" y="-138" type="line"/>
      <point x="399" y="-217"/>
      <point x="321" y="-256"/>
      <point x="253" y="-256" type="curve" smooth="yes"/>
      <point x="186" y="-256"/>
      <point x="134" y="-247"/>
      <point x="76" y="-216" type="curve"/>
      <point x="129" y="-130" type="line"/>
      <point x="158" y="-150"/>
      <point x="205" y="-156"/>
      <point x="221" y="-156" type="curve" smooth="yes"/>
      <point x="255" y="-156"/>
      <point x="278" y="-148"/>
      <point x="278" y="-124" type="curve"/>
    </contour>
  </outline>
</glyph>
<glyph name="edieresis" format="1">
  <advance width="609"/>
  <unicode hex="00EB"/>
  <outline>
    <contour>
      <point x="96" y="190" type="line"/>
      <point x="96" y="284" type="line"/>
      <point x="559" y="284" type="line"/>
      <point x="573" y="190" type="line"/>
    </contour>
    <contour>
      <point x="370" y="240" type="line" smooth="yes"/>
      <point x="370" y="316"/>
      <point x="353" y="350"/>
      <point x="303" y="350" type="curve" smooth="yes"/>
      <point x="253" y="350"/>
      <point x="228" y="316"/>
      <point x="228" y="250" type="curve"/>
      <point x="226" y="230" type="line"/>
      <point x="226" y="144"/>
      <point x="268" y="120"/>
      <point x="308" y="120" type="curve" smooth="yes"/>
      <point x="355" y="120"/>
      <point x="388" y="135"/>
      <point x="404" y="165" type="curve"/>
      <point x="582" y="137" type="line"/>
      <point x="536" y="47"/>
      <point x="457" y="-10"/>
      <point x="318" y="-10" type="curve" smooth="yes"/>
      <point x="123" y="-10"/>
      <point x="30" y="91"/>
      <point x="30" y="230" type="curve" smooth="yes"/>
      <point x="30" y="247"/>
      <point x="31" y="263"/>
      <point x="34" y="279" type="curve" smooth="yes"/>
      <point x="53" y="392"/>
      <point x="139" y="470"/>
      <point x="308" y="470" type="curve" smooth="yes"/>
      <point x="488" y="470"/>
      <point x="575" y="384"/>
      <point x="575" y="239" type="curve" smooth="yes"/>
      <point x="575" y="231"/>
      <point x="575" y="211"/>
      <point x="573" y="190" type="curve"/>
      <point x="370" y="210" type="line"/>
    </contour>
    <contour>
      <point x="335" y="629" type="curve" smooth="yes"/>
      <point x="335" y="688"/>
      <point x="383" y="727"/>
      <point x="443" y="727" type="curve" smooth="yes"/>
      <point x="503" y="727"/>
      <point x="551" y="688"/>
      <point x="551" y="629" type="curve" smooth="yes"/>
      <point x="551" y="570"/>
      <point x="503" y="531"/>
      <point x="443" y="531" type="curve" smooth="yes"/>
      <point x="383" y="531"/>
      <point x="335" y="570"/>
    </contour>
    <contour>
      <point x="65" y="629" type="curve" smooth="yes"/>
      <point x="65" y="688"/>
      <point x="113" y="727"/>
      <point x="173" y="727" type="curve" smooth="yes"/>
      <point x="233" y="727"/>
      <point x="281" y="688"/>
      <point x="281" y="629" type="curve" smooth="yes"/>
      <point x="281" y="570"/>
      <point x="233" y="531"/>
      <point x="173" y="531" type="curve" smooth="yes"/>
      <point x="113" y="531"/>
      <point x="65" y="570"/>
    </contour>
  </outline>
</glyph>
<glyph name="Cdotaccent" format="1">
  <advance width="710"/>
  <unicode hex="010A"/>
  <outline>
    <contour>
      <point x="272" y="350" type="curve" smooth="yes"/>
      <point x="272" y="242"/>
      <point x="353" y="187"/>
      <point x="451" y="187" type="curve" smooth="yes"/>
      <point x="550" y="187"/>
      <point x="606" y="231"/>
      <point x="650" y="273" type="curve"/>
      <point x="650" y="47" type="line"/>
      <point x="595" y="9"/>
      <point x="537" y="-20"/>
      <point x="435" y="-20" type="curve" smooth="yes"/>
      <point x="191" y="-20"/>
      <point x="30" y="126"/>
      <point x="30" y="350" type="curve" smooth="yes"/>
      <point x="30" y="574"/>
      <point x="191" y="720"/>
      <point x="435" y="720" type="curve" smooth="yes"/>
      <point x="537" y="720"/>
      <point x="595" y="691"/>
      <point x="650" y="653" type="curve"/>
      <point x="650" y="427" type="line"/>
      <point x="606" y="469"/>
      <point x="550" y="513"/>
      <point x="451" y="513" type="curve" smooth="yes"/>
      <point x="353" y="513"/>
      <point x="272" y="458"/>
    </contour>
    <contour>
      <point x="287" y="878" type="curve" smooth="yes"/>
      <point x="287" y="937"/>
      <point x="335" y="976"/>
      <point x="395" y="976" type="curve" smooth="yes"/>
      <point x="455" y="976"/>
      <point x="503" y="937"/>
      <point x="503" y="878" type="curve" smooth="yes"/>
      <point x="503" y="819"/>
      <point x="455" y="780"/>
      <point x="395" y="780" type="curve" smooth="yes"/>
      <point x="335" y="780"/>
      <point x="287" y="819"/>
    </contour>
  </outline>
</glyph>
<glyph name="Dcaron" format="1">
  <advance width="765"/>
  <unicode hex="010E"/>
  <outline>
    <contour>
      <point x="222" y="510" type="line"/>
      <point x="222" y="700" type="line"/>
      <point x="345" y="700" type="line" smooth="yes"/>
      <point x="589" y="700"/>
      <point x="735" y="569"/>
      <point x="735" y="350" type="curve"/>
      <point x="505" y="350" type="line"/>
      <point x="505" y="493"/>
      <point x="413" y="510"/>
      <point x="335" y="510" type="curve" smooth="yes"/>
    </contour>
    <contour>
      <point x="345" y="0" type="curve" smooth="yes"/>
      <point x="222" y="0" type="line"/>
      <point x="222" y="190" type="line"/>
      <point x="335" y="190" type="line" smooth="yes"/>
      <point x="413" y="190"/>
      <point x="505" y="207"/>
      <point x="505" y="350" type="curve"/>
      <point x="735" y="350" type="line"/>
      <point x="735" y="131"/>
      <point x="589" y="0"/>
    </contour>
    <contour>
      <point x="70" y="700" type="line"/>
      <point x="299" y="700" type="line"/>
      <point x="299" y="0" type="line"/>
      <point x="70" y="0" type="line"/>
    </contour>
    <contour>
      <point x="402" y="930" type="line"/>
      <point x="482" y="1010" type="line"/>
      <point x="622" y="920" type="line"/>
      <point x="402" y="780" type="line"/>
      <point x="182" y="920" type="line"/>
      <point x="322" y="1010" type="line"/>
    </contour>
  </outline>
</glyph>
<glyph name="gbreve" format="1">
  <advance width="635"/>
  <unicode hex="011F"/>
  <outline>
    <contour>
      <point x="446" y="240" type="curve"/>
      <point x="400" y="240" type="line"/>
      <point x="400" y="296"/>
      <point x="358" y="320"/>
      <point x="318" y="320" type="curve" smooth="yes"/>
      <point x="273" y="320"/>
      <point x="236" y="291"/>
      <point x="236" y="240" type="curve"/>
      <point x="30" y="240" type="line"/>
      <point x="30" y="399"/>
      <point x="138" y="470"/>
      <point x="243" y="470" type="curve" smooth="yes"/>
      <point x="358" y="470"/>
      <point x="446" y="389"/>
    </contour>
    <contour>
      <point x="400" y="240" type="curve"/>
      <point x="446" y="240" type="line"/>
      <point x="446" y="91"/>
      <point x="358" y="10"/>
      <point x="243" y="10" type="curve" smooth="yes"/>
      <point x="138" y="10"/>
      <point x="30" y="81"/>
      <point x="30" y="240" type="curve"/>
      <point x="236" y="240" type="line"/>
      <point x="236" y="189"/>
      <point x="273" y="160"/>
      <point x="318" y="160" type="curve" smooth="yes"/>
      <point x="358" y="160"/>
      <point x="400" y="184"/>
    </contour>
    <contour>
      <point x="40" y="-35" type="curve"/>
      <point x="227" y="-35" type="line"/>
      <point x="235" y="-86"/>
      <point x="266" y="-95"/>
      <point x="306" y="-95" type="curve" smooth="yes"/>
      <point x="366" y="-95"/>
      <point x="400" y="-56"/>
      <point x="400" y="10" type="curve" smooth="yes"/>
      <point x="400" y="460" type="line"/>
      <point x="585" y="460" type="line"/>
      <point x="585" y="10" type="line" smooth="yes"/>
      <point x="585" y="-179"/>
      <point x="471" y="-245"/>
      <point x="316" y="-245" type="curve" smooth="yes"/>
      <point x="121" y="-245"/>
      <point x="58" y="-159"/>
    </contour>
    <contour>
      <point x="175" y="681" type="curve"/>
      <point x="291" y="681" type="line"/>
      <point x="291" y="640"/>
      <point x="323" y="631"/>
      <point x="343" y="631" type="curve" smooth="yes"/>
      <point x="363" y="631"/>
      <point x="395" y="640"/>
      <point x="395" y="681" type="curve"/>
      <point x="511" y="681" type="line"/>
      <point x="511" y="592"/>
      <point x="448" y="531"/>
      <point x="343" y="531" type="curve" smooth="yes"/>
      <point x="238" y="531"/>
      <point x="175" y="592"/>
    </contour>
  </outline>
</glyph>
<glyph name="Gdotaccent" format="1">
  <advance width="838"/>
  <unicode hex="0120"/>
  <outline>
    <contour>
      <point x="430" y="240" type="line"/>
      <point x="430" y="400" type="line"/>
      <point x="802" y="400" type="line"/>
      <point x="692" y="240" type="line"/>
    </contour>
    <contour>
      <point x="802" y="400" type="line"/>
      <point x="822" y="161"/>
      <point x="684" y="-30"/>
      <point x="430" y="-30" type="curve" smooth="yes"/>
      <point x="196" y="-30"/>
      <point x="30" y="121"/>
      <point x="30" y="350" type="curve" smooth="yes"/>
      <point x="30" y="579"/>
      <point x="206" y="720"/>
      <point x="440" y="720" type="curve" smooth="yes"/>
      <point x="599" y="720"/>
      <point x="701" y="641"/>
      <point x="771" y="544" type="curve"/>
      <point x="566" y="452" type="line"/>
      <point x="542" y="496"/>
      <point x="507" y="535"/>
      <point x="440" y="535" type="curve" smooth="yes"/>
      <point x="342" y="535"/>
      <point x="260" y="473"/>
      <point x="260" y="350" type="curve" smooth="yes"/>
      <point x="260" y="227"/>
      <point x="332" y="155"/>
      <point x="440" y="155" type="curve" smooth="yes"/>
      <point x="588" y="155"/>
      <point x="612" y="267"/>
      <point x="612" y="400" type="curve"/>
    </contour>
    <contour>
      <point x="332" y="878" type="curve" smooth="yes"/>
      <point x="332" y="937"/>
      <point x="380" y="976"/>
      <point x="440" y="976" type="curve" smooth="yes"/>
      <point x="500" y="976"/>
      <point x="548" y="937"/>
      <point x="548" y="878" type="curve" smooth="yes"/>
      <point x="548" y="819"/>
      <point x="500" y="780"/>
      <point x="440" y="780" type="curve" smooth="yes"/>
      <point x="380" y="780"/>
      <point x="332" y="819"/>
    </contour>
  </outline>
</glyph>
<glyph name="iogonek" format="1">
  <advance width="286"/>
  <unicode hex="012F"/>
  <outline>
    <contour>
      <point x="35" y="622" type="curve" smooth="yes"/>
      <point x="35" y="681"/>
      <point x="83" y="720"/>
      <point x="143" y="720" type="curve" smooth="yes"/>
      <point x="203" y="720"/>
      <point x="251" y="681"/>
      <point x="251" y="622" type="curve" smooth="yes"/>
      <point x="251" y="563"/>
      <point x="203" y="524"/>
      <point x="143" y="524" type="curve" smooth="yes"/>
      <point x="83" y="524"/>
      <point x="35" y="563"/>
    </contour>
    <contour>
      <point x="49" y="460" type="line"/>
      <point x="236" y="460" type="line"/>
      <point x="236" y="0" type="line"/>
      <point x="49" y="0" type="line"/>
    </contour>
    <contour>
      <point x="218" y="-97" type="curve"/>
      <point x="252" y="-177" type="line"/>
      <point x="237" y="-197"/>
      <point x="207" y="-217"/>
      <point x="144" y="-217" type="curve" smooth="yes"/>
      <point x="90" y="-217"/>
      <point x="30" y="-186"/>
      <point x="30" y="-117" type="curve"/>
      <point x="140" y="-87" type="line"/>
      <point x="140" y="-105"/>
      <point x="148" y="-117"/>
      <point x="168" y="-117" type="curve" smooth="yes"/>
      <point x="184" y="-117"/>
      <point x="204" y="-110"/>
    </contour>
    <contour>
      <point x="140" y="-87" type="curve"/>
      <point x="30" y="-117" type="line"/>
      <point x="30" y="-48"/>
      <point x="102" y="-8"/>
      <point x="172" y="28" type="curve"/>
      <point x="214" y="3" type="line"/>
      <point x="162" y="-29"/>
      <point x="140" y="-60"/>
    </contour>
  </outline>
</glyph>
<glyph name="Idotaccent" format="1">
  <advance width="365"/>
  <unicode hex="0130"/>
  <outline>
    <contour>
      <point x="70" y="700" type="line"/>
      <point x="295" y="700" type="line"/>
      <point x="295" y="0" type="line"/>
      <point x="70" y="0" type="line"/>
    </contour>
    <contour>
      <point x="74" y="878" type="curve" smooth="yes"/>
      <point x="74" y="937"/>
      <point x="122" y="976"/>
      <point x="182" y="976" type="curve" smooth="yes"/>
      <point x="242" y="976"/>
      <point x="290" y="937"/>
      <point x="290" y="878" type="curve" smooth="yes"/>
      <point x="290" y="819"/>
      <point x="242" y="780"/>
      <point x="182" y="780" type="curve" smooth="yes"/>
      <point x="122" y="780"/>
      <point x="74" y="819"/>
    </contour>
  </outline>
</glyph>
<glyph name="Jcircumflex" format="1">
  <advance width="385"/>
  <unicode hex="0134"/>
  <outline>
    <contour>
      <point x="-75" y="-39" type="line"/>
      <point x="-51" y="-54"/>
      <point x="-19" y="-70"/>
      <point x="7" y="-70" type="curve" smooth="yes"/>
      <point x="37" y="-70"/>
      <point x="70" y="-51"/>
      <point x="70" y="5" type="curve" smooth="yes"/>
      <point x="70" y="700" type="line"/>
      <point x="315" y="700" type="line"/>
      <point x="315" y="-50" type="line" smooth="yes"/>
      <point x="315" y="-199"/>
      <point x="181" y="-250"/>
      <point x="37" y="-250" type="curve" smooth="yes"/>
      <point x="-56" y="-250"/>
      <point x="-141" y="-220"/>
      <point x="-196" y="-190" type="curve"/>
    </contour>
    <contour>
      <point x="192" y="860" type="line"/>
      <point x="112" y="780" type="line"/>
      <point x="-28" y="870" type="line"/>
      <point x="192" y="1010" type="line"/>
      <point x="412" y="870" type="line"/>
      <point x="272" y="780" type="line"/>
    </contour>
  </outline>
</glyph>
<glyph name="Ldot" format="1">
  <advance width="575"/>
  <unicode hex="013F"/>
  <outline>
    <contour>
      <point x="222" y="0" type="line"/>
      <point x="222" y="185" type="line"/>
      <point x="575" y="185" type="line"/>
      <point x="575" y="0" type="line"/>
    </contour>
    <contour>
      <point x="70" y="700" type="line"/>
      <point x="290" y="700" type="line"/>
      <point x="290" y="0" type="line"/>
      <point x="70" y="0" type="line"/>
    </contour>
    <contour>
      <point x="326" y="438" type="curve" smooth="yes"/>
      <point x="326" y="501"/>
      <point x="374" y="553"/>
      <point x="444" y="553" type="curve" smooth="yes"/>
      <point x="514" y="553"/>
      <point x="562" y="501"/>
      <point x="562" y="438" type="curve" smooth="yes"/>
      <point x="562" y="375"/>
      <point x="514" y="323"/>
      <point x="444" y="323" type="curve" smooth="yes"/>
      <point x="374" y="323"/>
      <point x="326" y="375"/>
    </contour>
  </outline>
</glyph>
<glyph name="Lslash" format="1">
  <advance width="585"/>
  <unicode hex="0141"/>
  <outline>
    <contour>
      <point x="5" y="290" type="line"/>
      <point x="-45" y="375" type="line"/>
      <point x="375" y="665" type="line"/>
      <point x="425" y="580" type="line"/>
    </contour>
    <contour>
      <point x="252" y="0" type="line"/>
      <point x="252" y="185" type="line"/>
      <point x="575" y="185" type="line"/>
      <point x="575" y="0" type="line"/>
    </contour>
    <contour>
      <point x="70" y="700" type="line"/>
      <point x="290" y="700" type="line"/>
      <point x="290" y="0" type="line"/>
      <point x="70" y="0" type="line"/>
    </contour>
  </outline>
</glyph>
<glyph name="scedilla" format="1">
  <advance width="488"/>
  <unicode hex="015F"/>
  <outline>
    <contour>
      <point x="78" y="183" type="line"/>
      <point x="180" y="121"/>
      <point x="233" y="117"/>
      <point x="250" y="117" type="curve" smooth="yes"/>
      <point x="263" y="117"/>
      <point x="275" y="118"/>
      <point x="275" y="131" type="curve" smooth="yes"/>
      <point x="275" y="156"/>
      <point x="195" y="159"/>
      <point x="141" y="186" type="curve" smooth="yes"/>
      <point x="82" y="216"/>
      <point x="34" y="247"/>
      <point x="34" y="329" type="curve" smooth="yes"/>
      <point x="34" y="425"/>
      <point x="124" y="470"/>
      <point x="238" y="470" type="curve" smooth="yes"/>
      <point x="321" y="470"/>
      <point x="386" y="446"/>
      <point x="454" y="415" type="curve"/>
      <point x="406" y="282" type="line"/>
      <point x="361" y="320"/>
      <point x="291" y="339"/>
      <point x="254" y="339" type="curve" smooth="yes"/>
      <point x="227" y="339"/>
      <point x="219" y="335"/>
      <point x="219" y="324" type="curve" smooth="yes"/>
      <point x="219" y="302"/>
      <point x="279" y="293"/>
      <point x="341" y="270" type="curve" smooth="yes"/>
      <point x="406" y="246"/>
      <point x="468" y="217"/>
      <point x="468" y="130" type="curve" smooth="yes"/>
      <point x="468" y="21"/>
      <point x="404" y="-25"/>
      <point x="285" y="-25" type="curve" smooth="yes"/>
      <point x="180" y="-25"/>
      <point x="99" y="1"/>
      <point x="15" y="46" type="curve"/>
    </contour>
    <contour>
      <point x="215" y="77" type="line"/>
      <point x="355" y="71" type="line"/>
      <point x="225" y="-95" type="line"/>
      <point x="126" y="-134" type="line"/>
    </contour>
    <contour>
      <point x="411" y="-163" type="curve"/>
      <point x="290" y="-149" type="line"/>
      <point x="290" y="-121"/>
      <point x="252" y="-119"/>
      <point x="223" y="-119" type="curve" smooth="yes"/>
      <point x="213" y="-119"/>
      <point x="169" y="-120"/>
      <point x="126" y="-134" type="curve"/>
      <point x="205" y="-87" type="line"/>
      <point x="233" y="-57"/>
      <point x="265" y="-51"/>
      <point x="308" y="-51" type="curve" smooth="yes"/>
      <point x="352" y="-51"/>
      <point x="411" y="-87"/>
    </contour>
    <contour>
      <point x="411" y="-163" type="line"/>
      <point x="411" y="-242"/>
      <point x="333" y="-281"/>
      <point x="265" y="-281" type="curve" smooth="yes"/>
      <point x="198" y="-281"/>
      <point x="146" y="-272"/>
      <point x="88" y="-241" type="curve"/>
      <point x="141" y="-155" type="line"/>
      <point x="170" y="-175"/>
      <point x="217" y="-181"/>
      <point x="233" y="-181" type="curve" smooth="yes"/>
      <point x="267" y="-181"/>
      <point x="290" y="-173"/>
      <point x="290" y="-149" type="curve"/>
    </contour>
  </outline>
</glyph>
<glyph name="uni0219" format="1">
  <advance width="488"/>
  <unicode hex="0219"/>
  <outline>
    <contour>
      <point x="78" y="183" type="line"/>
      <point x="180" y="121"/>
      <point x="233" y="117"/>
      <point x="250" y="117" type="curve" smooth="yes"/>
      <point x="263" y="117"/>
      <point x="275" y="118"/>
      <point x="275" y="131" type="curve" smooth="yes"/>
      <point x="275" y="156"/>
      <point x="195" y="159"/>
      <point x="141" y="186" type="curve" smooth="yes"/>
      <point x="82" y="216"/>
      <point x="34" y="247"/>
      <point x="34" y="329" type="curve" smooth="yes"/>
      <point x="34" y="425"/>
      <point x="124" y="470"/>
      <point x="238" y="470" type="curve" smooth="yes"/>
      <point x="321" y="470"/>
      <point x="386" y="446"/>
      <point x="454" y="415" type="curve"/>
      <point x="406" y="282" type="line"/>
      <point x="361" y="320"/>
      <point x="291" y="339"/>
      <point x="254" y="339" type="curve" smooth="yes"/>
      <point x="227" y="339"/>
      <point x="219" y="335"/>
      <point x="219" y="324" type="curve" smooth="yes"/>
      <point x="219" y="302"/>
      <point x="279" y="293"/>
      <point x="341" y="270" type="curve" smooth="yes"/>
      <point x="406" y="246"/>
      <point x="468" y="217"/>
      <point x="468" y="130" type="curve" smooth="yes"/>
      <point x="468" y="21"/>
      <point x="404" y="-25"/>
      <point x="285" y="-25" type="curve" smooth="yes"/>
      <point x="180" y="-25"/>
      <point x="99" y="1"/>
      <point x="15" y="46" type="curve"/>
    </contour>
    <contour>
      <point x="192" y="-65" type="line"/>
      <point x="386" y="-99" type="line"/>
      <point x="252" y="-349" type="line"/>
      <point x="104" y="-324" type="line"/>
    </contour>
  </outline>
</glyph>
<glyph name="uni2010" format="1">
  <advance width="230"/>
  <unicode hex="2010"/>
  <outline>
    <contour>
      <point x="5" y="155" type="line"/>
      <point x="5" y="320" type="line"/>
      <point x="225" y="320" type="line"/>
      <point x="225" y="155" type="line"/>
    </contour>
  </outline>
</glyph>
<glyph name="figuredash" format="1">
  <advance width="650"/>
  <unicode hex="2012"/>
  <outline>
    <contour>
      <point x="70" y="155" type="line"/>
      <point x="70" y="320" type="line"/>
      <point x="565" y="320" type="line"/>
      <point x="565" y="155" type="line"/>
    </contour>
  </outline>
</glyph>
<glyph name="quotesinglbase" format="1">
  <advance width="365"/>
  <unicode hex="201A"/>
  <outline>
    <contour>
      <point x="110" y="80" type="line"/>
      <point x="305" y="80" type="line"/>
      <point x="200" y="-190" type="line"/>
      <point x="60" y="-190" type="line"/>
    </contour>
  </outline>
</glyph>
<glyph name="quotedblright" format="1">
  <advance width="615"/>
  <unicode hex="201D"/>
  <outline>
    <contour>
      <point x="100" y="700" type="line"/>
      <point x="295" y="700" type="line"/>
      <point x="190" y="430" type="line"/>
      <point x="50" y="430" type="line"/>
    </contour>
    <contour>
      <point x="350" y="700" type="line"/>
      <point x="545" y="700" type="line"/>
      <point x="440" y="430" type="line"/>
      <point x="300" y="430" type="line"/>
    </contour>
  </outline>
</glyph>
<glyph name="guilsinglleft" format="1">
  <advance width="350"/>
  <unicode hex="2039"/>
  <outline>
    <contour>
      <point x="140" y="235" type="line"/>
      <point x="20" y="255" type="line"/>
      <point x="190" y="520" type="line"/>
      <point x="310" y="445" type="line"/>
    </contour>
    <contour>
      <point x="20" y="255" type="line"/>
      <point x="140" y="285" type="line"/>
      <point x="310" y="65" type="line"/>
      <point x="190" y="-10" type="line"/>
    </contour>
  </outline>
</glyph>
<glyph name="uni2076" format="1">
  <advance width="406"/>
  <unicode hex="2076"/>
  <outline>
    <contour>
      <point x="145" y="431" type="curve" smooth="yes"/>
      <point x="145" y="397"/>
      <point x="170" y="377"/>
      <point x="202" y="377" type="curve" smooth="yes"/>
      <point x="234" y="377"/>
      <point x="258" y="397"/>
      <point x="258" y="431" type="curve" smooth="yes"/>
      <point x="258" y="465"/>
      <point x="234" y="486"/>
      <point x="202" y="486" type="curve" smooth="yes"/>
      <point x="170" y="486"/>
      <point x="145" y="465"/>
    </contour>
    <contour>
      <point x="185" y="695" type="line"/>
      <point x="352" y="695" type="line"/>
      <point x="214" y="556" type="line"/>
      <point x="183" y="540" type="line"/>
      <point x="209" y="563"/>
      <point x="224" y="568"/>
      <point x="256" y="568" type="curve" smooth="yes"/>
      <point x="315" y="568"/>
      <point x="390" y="520"/>
      <point x="390" y="431" type="curve" smooth="yes"/>
      <point x="390" y="318"/>
      <point x="304" y="266"/>
      <point x="202" y="266" type="curve" smooth="yes"/>
      <point x="100" y="266"/>
      <point x="14" y="318"/>
      <point x="14" y="431" type="curve" smooth="yes"/>
      <point x="14" y="483"/>
      <point x="42" y="525"/>
      <point x="76" y="566" type="curve" smooth="yes"/>
    </contour>
  </outline>
</glyph>
<glyph name="uni2086" format="1">
  <advance width="424"/>
  <unicode hex="2086"/>
  <outline>
    <contour>
      <point x="151" y="151" type="curve" smooth="yes"/>
      <point x="151" y="117"/>
      <point x="176" y="97"/>
      <point x="208" y="97" type="curve" smooth="yes"/>
      <point x="240" y="97"/>
      <point x="264" y="117"/>
      <point x="264" y="151" type="curve" smooth="yes"/>
      <point x="264" y="185"/>
      <point x="240" y="206"/>
      <point x="208" y="206" type="curve" smooth="yes"/>
      <point x="176" y="206"/>
      <point x="151" y="185"/>
    </contour>
    <contour>
      <point x="191" y="415" type="line"/>
      <point x="358" y="415" type="line"/>
      <point x="220" y="276" type="line"/>
      <point x="189" y="260" type="line"/>
      <point x="215" y="283"/>
      <point x="230" y="288"/>
      <point x="262" y="288" type="curve" smooth="yes"/>
      <point x="321" y="288"/>
      <point x="396" y="240"/>
      <point x="396" y="151" type="curve" smooth="yes"/>
      <point x="396" y="38"/>
      <point x="310" y="-14"/>
      <point x="208" y="-14" type="curve" smooth="yes"/>
      <point x="106" y="-14"/>
      <point x="20" y="38"/>
      <point x="20" y="151" type="curve" smooth="yes"/>
      <point x="20" y="203"/>
      <point x="48" y="245"/>
      <point x="82" y="286" type="curve" smooth="yes"/>
    </contour>
  </outline>
</glyph>
<glyph name="onethird" format="1">
  <advance width="945"/>
  <unicode hex="2153"/>
  <outline>
    <contour>
      <point x="617" y="700" type="line"/>
      <point x="772" y="700" type="line"/>
      <point x="252" y="0" type="line"/>
      <point x="97" y="0" type="line"/>
    </contour>
    <contour>
      <point x="20" y="549" type="line"/>
      <point x="20" y="659" type="line"/>
      <point x="257" y="703" type="line"/>
      <point x="257" y="274" type="line"/>
      <point x="131" y="274" type="line"/>
      <point x="131" y="574" type="line"/>
    </contour>
    <contour>
      <point x="707" y="201" type="curve"/>
      <point x="707" y="254" type="line"/>
      <point x="749" y="254"/>
      <point x="780" y="276"/>
      <point x="780" y="301" type="curve" smooth="yes"/>
      <point x="780" y="317"/>
      <point x="768" y="327"/>
      <point x="742" y="327" type="curve" smooth="yes"/>
      <point x="715" y="327"/>
      <point x="697" y="311"/>
      <point x="697" y="286" type="curve"/>
      <point x="576" y="286" type="line"/>
      <point x="576" y="366"/>
      <point x="641" y="429"/>
      <point x="743" y="429" type="curve" smooth="yes"/>
      <point x="851" y="429"/>
      <point x="910" y="378"/>
      <point x="910" y="310" type="curve" smooth="yes"/>
      <point x="910" y="230"/>
      <point x="818" y="201"/>
    </contour>
    <contour>
      <point x="737" y="-12" type="curve" smooth="yes"/>
      <point x="623" y="-12"/>
      <point x="558" y="67"/>
      <point x="558" y="147" type="curve"/>
      <point x="688" y="147" type="line"/>
      <point x="688" y="104"/>
      <point x="716" y="90"/>
      <point x="743" y="90" type="curve" smooth="yes"/>
      <point x="770" y="90"/>
      <point x="792" y="98"/>
      <point x="792" y="129" type="curve" smooth="yes"/>
      <point x="792" y="154"/>
      <point x="773" y="177"/>
      <point x="707" y="177" type="curve"/>
      <point x="707" y="239" type="line"/>
      <point x="836" y="239"/>
      <point x="922" y="203"/>
      <point x="922" y="117" type="curve" smooth="yes"/>
      <point x="922" y="43"/>
      <point x="857" y="-12"/>
    </contour>
  </outline>
</glyph>
<glyph name="uni215A" format="1">
  <advance width="976"/>
  <unicode hex="215A"/>
  <outline>
    <contour>
      <point x="700" y="700" type="line"/>
      <point x="855" y="700" type="line"/>
      <point x="335" y="0" type="line"/>
      <point x="180" y="0" type="line"/>
    </contour>
    <contour>
      <point x="392" y="410" type="curve" smooth="yes"/>
      <point x="392" y="309"/>
      <point x="290" y="269"/>
      <point x="209" y="269" type="curve" smooth="yes"/>
      <point x="132" y="269"/>
      <point x="76" y="285"/>
      <point x="30" y="303" type="curve"/>
      <point x="67" y="420" type="line"/>
      <point x="110" y="396"/>
      <point x="151" y="389"/>
      <point x="173" y="389" type="curve" smooth="yes"/>
      <point x="218" y="389"/>
      <point x="247" y="397"/>
      <point x="247" y="428" type="curve" smooth="yes"/>
      <point x="247" y="459"/>
      <point x="206" y="464"/>
      <point x="173" y="464" type="curve" smooth="yes"/>
      <point x="145" y="464"/>
      <point x="92" y="460"/>
      <point x="49" y="444" type="curve"/>
      <point x="144" y="502" type="line"/>
      <point x="178" y="538"/>
      <point x="216" y="545"/>
      <point x="263" y="545" type="curve" smooth="yes"/>
      <point x="326" y="545"/>
      <point x="392" y="499"/>
    </contour>
    <contour>
      <point x="205" y="584" type="line"/>
      <point x="168" y="492" type="line"/>
      <point x="49" y="444" type="line"/>
      <point x="109" y="698" type="line"/>
      <point x="379" y="698" type="line"/>
      <point x="379" y="584" type="line"/>
    </contour>
    <contour>
      <point x="701" y="151" type="curve" smooth="yes"/>
      <point x="701" y="117"/>
      <point x="726" y="97"/>
      <point x="758" y="97" type="curve" smooth="yes"/>
      <point x="790" y="97"/>
      <point x="814" y="117"/>
      <point x="814" y="151" type="curve" smooth="yes"/>
      <point x="814" y="185"/>
      <point x="790" y="206"/>
      <point x="758" y="206" type="curve" smooth="yes"/>
      <point x="726" y="206"/>
      <point x="701" y="185"/>
    </contour>
    <contour>
      <point x="741" y="415" type="line"/>
      <point x="908" y="415" type="line"/>
      <point x="770" y="276" type="line"/>
      <point x="739" y="260" type="line"/>
      <point x="765" y="283"/>
      <point x="780" y="288"/>
      <point x="812" y="288" type="curve" smooth="yes"/>
      <point x="871" y="288"/>
      <point x="946" y="240"/>
      <point x="946" y="151" type="curve" smooth="yes"/>
      <point x="946" y="38"/>
      <point x="860" y="-14"/>
      <point x="758" y="-14" type="curve" smooth="yes"/>
      <point x="656" y="-14"/>
      <point x="570" y="38"/>
      <point x="570" y="151" type="curve" smooth="yes"/>
      <point x="570" y="203"/>
      <point x="598" y="245"/>
      <point x="632" y="286" type="curve" smooth="yes"/>
    </contour>
  </outline>
</glyph>
<glyph name="minus" format="1">
  <advance width="595"/>
  <unicode hex="2212"/>
  <outline>
    <contour>
      <point x="50" y="155" type="line"/>
      <point x="50" y="320" type="line"/>
      <point x="545" y="320" type="line"/>
      <point x="545" y="155" type="line"/>
    </contour>
  </outline>
</glyph>
<glyph name="aogonek.alt" format="1">
  <advance width="645"/>
  <outline>
    <contour>
      <point x="400" y="460" type="line"/>
      <point x="595" y="460" type="line"/>
      <point x="595" y="0" type="line"/>
      <point x="400" y="0" type="line"/>
    </contour>
    <contour>
      <point x="30" y="230" type="curve" smooth="yes"/>
      <point x="30" y="389"/>
      <point x="138" y="470"/>
      <point x="243" y="470" type="curve" smooth="yes"/>
      <point x="358" y="470"/>
      <point x="446" y="379"/>
      <point x="446" y="230" type="curve" smooth="yes"/>
      <point x="446" y="81"/>
      <point x="358" y="-10"/>
      <point x="243" y="-10" type="curve" smooth="yes"/>
      <point x="138" y="-10"/>
      <point x="30" y="71"/>
    </contour>
    <contour>
      <point x="236" y="230" type="curve" smooth="yes"/>
      <point x="236" y="179"/>
      <point x="273" y="140"/>
      <point x="318" y="140" type="curve" smooth="yes"/>
      <point x="358" y="140"/>
      <point x="400" y="174"/>
      <point x="400" y="230" type="curve" smooth="yes"/>
      <point x="400" y="286"/>
      <point x="358" y="320"/>
      <point x="318" y="320" type="curve" smooth="yes"/>
      <point x="273" y="320"/>
      <point x="236" y="281"/>
    </contour>
    <contour>
      <point x="540" y="-100" type="curve"/>
      <point x="573" y="-180" type="line"/>
      <point x="558" y="-200"/>
      <point x="528" y="-220"/>
      <point x="465" y="-220" type="curve" smooth="yes"/>
      <point x="411" y="-220"/>
      <point x="352" y="-189"/>
      <point x="352" y="-120" type="curve"/>
      <point x="462" y="-90" type="line"/>
      <point x="462" y="-108"/>
      <point x="470" y="-120"/>
      <point x="490" y="-120" type="curve" smooth="yes"/>
      <point x="506" y="-120"/>
      <point x="526" y="-113"/>
    </contour>
    <contour>
      <point x="462" y="-90" type="curve"/>
      <point x="352" y="-120" type="line"/>
      <point x="352" y="-51"/>
      <point x="424" y="-11"/>
      <point x="494" y="25" type="curve"/>
      <point x="535" y="0" type="line"/>
      <point x="483" y="-32"/>
      <point x="462" y="-63"/>
    </contour>
  </outline>
</glyph>
